<svg width="24" height="24" viewBox="0 0 24 24" fill="none" xmlns="http://www.w3.org/2000/svg">
<path d="M4.79076 20C4.83763 20 4.88451 19.9953 4.93138 19.9883L8.87357 19.2969C8.92045 19.2875 8.96498 19.2664 8.99779 19.2312L18.9329 9.29609C18.9547 9.27441 18.9719 9.24866 18.9837 9.2203C18.9954 9.19195 19.0015 9.16156 19.0015 9.13086C19.0015 9.10016 18.9954 9.06977 18.9837 9.04142C18.9719 9.01306 18.9547 8.98731 18.9329 8.96563L15.0376 5.06797C14.9931 5.02344 14.9345 5 14.8712 5C14.8079 5 14.7494 5.02344 14.7048 5.06797L4.76966 15.0031C4.73451 15.0383 4.71342 15.0805 4.70404 15.1273L4.01263 19.0695C3.98983 19.1951 3.99798 19.3243 4.03637 19.446C4.07476 19.5677 4.14223 19.6782 4.23295 19.768C4.38763 19.918 4.58217 20 4.79076 20ZM6.37045 15.9125L14.8712 7.41406L16.5892 9.13203L8.08842 17.6305L6.00482 17.9984L6.37045 15.9125Z" fill="#C4B70C"/>
</svg>
