<svg width="15" height="14" viewBox="0 0 15 14" fill="none" xmlns="http://www.w3.org/2000/svg">
<path d="M0.738042 14C0.781792 14 0.825542 13.9956 0.869292 13.9891L4.54867 13.3438C4.59242 13.335 4.63398 13.3153 4.66461 13.2825L13.9374 4.00969C13.9577 3.98945 13.9738 3.96541 13.9848 3.93895C13.9957 3.91249 14.0014 3.88412 14.0014 3.85547C14.0014 3.82682 13.9957 3.79845 13.9848 3.77199C13.9738 3.74553 13.9577 3.72149 13.9374 3.70125L10.3018 0.0634375C10.2602 0.021875 10.2055 0 10.1465 0C10.0874 0 10.0327 0.021875 9.99117 0.0634375L0.718354 9.33625C0.685541 9.36906 0.665854 9.40844 0.657104 9.45219L0.0117918 13.1316C-0.00948848 13.2487 -0.00188473 13.3694 0.0339445 13.4829C0.0697737 13.5965 0.132748 13.6997 0.217416 13.7834C0.361791 13.9234 0.543355 14 0.738042 14ZM2.21242 10.185L10.1465 2.25313L11.7499 3.85656L3.81585 11.7884L1.87117 12.1319L2.21242 10.185Z" fill="#FFDC75"/>
</svg>
