<svg width="14" height="14" viewBox="0 0 14 14" fill="none" xmlns="http://www.w3.org/2000/svg">
<path fill-rule="evenodd" clip-rule="evenodd" d="M3.39232 9.5607C2.46884 8.36965 2.03362 6.87139 2.17519 5.37071C2.31676 3.87004 3.02449 2.47968 4.1544 1.4825C5.2843 0.485317 6.75151 -0.0437825 8.25754 0.00283868C9.76356 0.0494599 11.1953 0.6683 12.2614 1.73346C13.3284 2.79936 13.949 4.23219 13.9968 5.73996C14.0445 7.24772 13.5157 8.71696 12.5182 9.84825C11.5207 10.9795 10.1295 11.6877 8.62816 11.8286C7.12682 11.9694 5.62831 11.5322 4.438 10.6061L4.40616 10.6394L1.26466 13.7829C1.19585 13.8517 1.11417 13.9063 1.02427 13.9436C0.934369 13.9808 0.838015 14 0.740707 14C0.6434 14 0.547046 13.9808 0.457146 13.9436C0.367246 13.9063 0.285561 13.8517 0.216754 13.7829C0.147947 13.7141 0.0933685 13.6323 0.0561304 13.5424C0.0188923 13.4525 -0.000274658 13.3561 -0.000274658 13.2587C-0.000274658 13.1614 0.0188923 13.065 0.0561304 12.975C0.0933685 12.8851 0.147947 12.8034 0.216754 12.7346L3.35899 9.59181C3.36981 9.58114 3.38092 9.57076 3.39232 9.5607ZM4.92974 2.78179C4.51161 3.19332 4.17907 3.6836 3.9513 4.22435C3.72353 4.7651 3.60503 5.34561 3.60264 5.9324C3.60025 6.51919 3.71402 7.10065 3.93738 7.64324C4.16075 8.18582 4.48929 8.6788 4.90405 9.09372C5.31881 9.50865 5.81159 9.83732 6.35396 10.0608C6.89633 10.2842 7.47755 10.398 8.06411 10.3957C8.65067 10.3933 9.23095 10.2747 9.77148 10.0469C10.312 9.81899 10.8021 9.48632 11.2135 9.06802C12.0356 8.2321 12.4942 7.10506 12.4894 5.9324C12.4846 4.75975 12.0169 3.63648 11.188 2.80728C10.3591 1.97808 9.2363 1.51013 8.06411 1.50535C6.89192 1.50058 5.76533 1.95937 4.92974 2.78179Z" fill="#4A627A"/>
</svg>
