<svg width="40" height="40" viewBox="0 0 40 40" fill="none" xmlns="http://www.w3.org/2000/svg">
<rect width="40" height="40" rx="11" fill="#3F51B5"/>
<path d="M22.7338 30C21.945 30.0009 21.18 29.7302 20.5674 29.2334L12.0685 22.2174C11.7352 21.9521 11.4661 21.615 11.2811 21.2313C11.0961 20.8475 11 20.427 11 20.001C11 19.575 11.0961 19.1544 11.2811 18.7707C11.4661 18.3869 11.7352 18.0499 12.0685 17.7845L20.5674 10.7685C21.079 10.3586 21.6956 10.1006 22.3467 10.024C22.9978 9.94737 23.6574 10.0552 24.2502 10.3352C24.7655 10.5624 25.2044 10.933 25.5147 11.4028C25.825 11.8727 25.9934 12.422 26 12.985V27.017C25.9934 27.58 25.825 28.1292 25.5147 28.5991C25.2044 29.069 24.7655 29.4396 24.2502 29.6667C23.7738 29.8833 23.2571 29.9969 22.7338 30ZM14.6348 20.001L22.6671 26.667V13.4849L14.6348 20.001Z" fill="white"/>
</svg>
