<svg width="12" height="12" viewBox="0 0 12 12" fill="none" xmlns="http://www.w3.org/2000/svg">
<path d="M11.5385 5.53846H6.46168V0.461538C6.46168 0.339131 6.41305 0.221737 6.3265 0.135182C6.23995 0.0486263 6.12256 0 6.00015 0C5.87775 0 5.76035 0.0486263 5.6738 0.135182C5.58725 0.221737 5.53862 0.339131 5.53862 0.461538V5.53846H0.461829C0.339425 5.53846 0.222034 5.58709 0.135481 5.67364C0.0489275 5.7602 0.00030243 5.87759 0.00030243 6C-0.00197503 6.05998 0.00863151 6.11976 0.0314071 6.1753C0.0541827 6.23084 0.0885982 6.28085 0.132334 6.32196C0.176071 6.36307 0.228111 6.39433 0.284949 6.41363C0.341787 6.43293 0.402102 6.43983 0.461829 6.43385H5.53862V11.5385C5.53862 11.6609 5.58725 11.7783 5.6738 11.8648C5.76035 11.9514 5.87775 12 6.00015 12C6.12256 12 6.23995 11.9514 6.3265 11.8648C6.41305 11.7783 6.46168 11.6609 6.46168 11.5385V6.46154H11.5385C11.6609 6.46154 11.7783 6.41291 11.8648 6.32636C11.9514 6.2398 12 6.12241 12 6C12 5.87759 11.9514 5.7602 11.8648 5.67364C11.7783 5.58709 11.6609 5.53846 11.5385 5.53846Z" fill="#01C587"/>
</svg>
