<svg width="24" height="24" viewBox="0 0 24 24" fill="none" xmlns="http://www.w3.org/2000/svg">
<path d="M21.8175 15.503V18.497C21.8175 18.6327 21.8015 18.7505 21.7695 18.8503C21.7376 18.9501 21.6997 19 21.656 19H17.4555C17.4151 19 17.3781 18.9481 17.3444 18.8443C17.3108 18.7405 17.2939 18.6248 17.2939 18.497V15.503C17.2939 15.3593 17.3108 15.2395 17.3444 15.1437C17.3781 15.0479 17.4151 15 17.4555 15H21.656C21.7031 15 21.7418 15.0479 21.7721 15.1437C21.8024 15.2395 21.8175 15.3593 21.8175 15.503Z" fill="#90A1B1"/>
<path d="M7.9484 5.50299V8.49701C7.9484 8.64072 7.93635 8.76048 7.91225 8.85629C7.88816 8.9521 7.85737 9 7.81989 9H2.42246C2.38497 9 2.35418 8.9521 2.33009 8.85629C2.30599 8.76048 2.29395 8.64072 2.29395 8.49701V5.50299C2.29395 5.35928 2.30599 5.23952 2.33009 5.14371C2.35418 5.0479 2.38497 5 2.42246 5H7.81989C7.85737 5 7.88816 5.0479 7.91225 5.14371C7.93635 5.23952 7.9484 5.35928 7.9484 5.50299Z" fill="#90A1B1"/>
<path d="M16.7756 10.503V13.497C16.7756 13.6407 16.7576 13.7605 16.7214 13.8563C16.6853 13.9521 16.6391 14 16.5829 14H8.48671C8.43049 14 8.3843 13.9521 8.34816 13.8563C8.31202 13.7605 8.29395 13.6407 8.29395 13.497V10.503C8.29395 10.3752 8.31202 10.2635 8.34816 10.1677C8.3843 10.0719 8.43049 10.016 8.48671 10H16.5829C16.6391 10.016 16.6853 10.0719 16.7214 10.1677C16.7576 10.2635 16.7756 10.3752 16.7756 10.503Z" fill="#90A1B1"/>
</svg>
