<svg width="24" height="24" viewBox="0 0 24 24" fill="none" xmlns="http://www.w3.org/2000/svg">
<path d="M14.9261 5.0719C13.8792 4.96864 12.9561 5.805 12.8609 6.95112L12.623 9.93515H15.3067V12.0002H12.4517L12.0329 17.2352C11.9903 17.7753 11.8498 18.301 11.6194 18.7821C11.389 19.2631 11.0733 19.69 10.6904 20.0383C10.3075 20.3866 9.86495 20.6493 9.38817 20.8115C8.9114 20.9737 8.40979 21.0321 7.91215 20.9833C7.32187 20.929 6.75136 20.7262 6.24587 20.3911C5.74039 20.0559 5.31382 19.5976 5 19.0525L6.42753 17.5037C6.65593 18.2677 7.28404 18.8563 8.07394 18.9286C9.12079 19.0318 10.0439 18.1955 10.1391 17.0493L10.5483 12.0002H7.69326V9.93515H10.7101L10.9671 6.76526C11.1479 4.49368 12.9941 2.81064 15.0878 3.01715C16.3346 3.13072 17.3814 3.88448 18 4.94799L16.5725 6.4968C16.3441 5.73272 15.716 5.14418 14.9261 5.0719Z" fill="#90A1B1"/>
</svg>
