<svg width="18" height="4" viewBox="0 0 18 4" fill="none" xmlns="http://www.w3.org/2000/svg">
<path d="M17.9998 0.502994V3.49701C17.9998 3.63273 17.9839 3.7505 17.9519 3.8503C17.9199 3.9501 17.8821 4 17.8383 4H13.6381C13.5977 4 13.5607 3.9481 13.527 3.84431C13.4934 3.74052 13.4766 3.62475 13.4766 3.49701V0.502994C13.4766 0.359281 13.4934 0.239521 13.527 0.143713C13.5607 0.0479041 13.5977 0 13.6381 0H17.8383C17.8854 0 17.9241 0.0479041 17.9544 0.143713C17.9847 0.239521 17.9998 0.359281 17.9998 0.502994Z" fill="#00B0FF"/>
<path d="M5.65411 0.502994V3.49701C5.65411 3.64072 5.64206 3.76048 5.61797 3.85629C5.59387 3.9521 5.56308 4 5.5256 4H0.128502C0.0910226 4 0.0602355 3.9521 0.0361413 3.85629C0.0120471 3.76048 0 3.64072 0 3.49701V0.502994C0 0.359281 0.0120471 0.239521 0.0361413 0.143713C0.0602355 0.0479042 0.0910226 0 0.128502 0H5.5256C5.56308 0 5.59387 0.0479042 5.61797 0.143713C5.64206 0.239521 5.65411 0.359281 5.65411 0.502994Z" fill="#FF7167"/>
<path d="M13.9995 0.502994V3.49701C13.9995 3.64072 13.9803 3.76048 13.9419 3.85629C13.9036 3.9521 13.8546 4 13.7949 4H5.20453C5.14488 4 5.09587 3.9521 5.05752 3.85629C5.01917 3.76048 5 3.64072 5 3.49701V0.502994C5 0.375249 5.01917 0.263473 5.05752 0.167664C5.09587 0.071856 5.14488 0.0159681 5.20453 0H13.7949C13.8546 0.0159681 13.9036 0.071856 13.9419 0.167664C13.9803 0.263473 13.9995 0.375249 13.9995 0.502994Z" fill="#01C587"/>
</svg>
