<svg width="24" height="24" viewBox="0 0 24 24" fill="none" xmlns="http://www.w3.org/2000/svg">
<rect width="24" height="24" fill="white"/>
<path d="M19.2 3H4.8C3.801 3 3 3.801 3 4.8V19.2C3 20.199 3.801 21 4.8 21H19.2C20.199 21 21 20.199 21 19.2V4.8C21 3.801 20.199 3 19.2 3ZM19.2 19.2H4.8V4.8H19.2V19.2Z" fill="#90A1B1"/>
<path d="M9.14661 10.825L7.76061 9.439L6.59961 10.6V7H10.1996L9.03861 8.161L10.4246 9.547L9.14661 10.825ZM13.5746 9.547L14.9606 8.161L13.7996 7H17.3996V10.6L16.2386 9.439L14.8526 10.825L13.5746 9.547ZM14.8526 13.975L16.2386 15.361L17.3996 14.2V17.8H13.7996L14.9606 16.639L13.5746 15.253L14.8526 13.975ZM10.4246 15.253L9.03861 16.639L10.1996 17.8H6.59961V14.2L7.76061 15.361L9.14661 13.975" fill="#01C587"/>
</svg>
