<svg width="24" height="24" viewBox="0 0 24 24" fill="none" xmlns="http://www.w3.org/2000/svg">
<path fill-rule="evenodd" clip-rule="evenodd" d="M6.25638 14.4593C6.42476 14.8432 6.45697 15.2759 6.3474 15.6818C6.23784 16.0877 5.99344 16.4412 5.65677 16.6807C5.32009 16.9202 4.91247 17.0306 4.50489 16.9925C4.09731 16.9545 3.7156 16.7706 3.42621 16.4727C3.13683 16.1748 2.95812 15.7818 2.9212 15.3623C2.88427 14.9427 2.99148 14.5231 3.22415 14.1765C3.45682 13.8299 3.80021 13.5783 4.19452 13.4656C4.58883 13.3528 5.00908 13.3859 5.38208 13.5593L7.44017 11.4406C7.32 11.1665 7.26847 10.8657 7.29031 10.5658C7.31214 10.2659 7.40662 9.97635 7.56514 9.7237C7.72365 9.47105 7.94114 9.26331 8.19773 9.11947C8.45432 8.97563 8.74183 8.90026 9.034 8.90026C9.32617 8.90026 9.61368 8.97563 9.87027 9.11947C10.1269 9.26331 10.3443 9.47105 10.5029 9.7237C10.6614 9.97635 10.7559 10.2659 10.7777 10.5658C10.7995 10.8657 10.748 11.1665 10.6278 11.4406L12.6859 13.5593C12.912 13.4538 13.1573 13.3992 13.4055 13.3992C13.6536 13.3992 13.899 13.4538 14.125 13.5593L17.0574 10.5406C16.889 10.1566 16.8568 9.72403 16.9663 9.31812C17.0759 8.91221 17.3203 8.55872 17.657 8.31921C17.9937 8.0797 18.4013 7.96934 18.8089 8.00734C19.2164 8.04535 19.5982 8.22932 19.8875 8.52722C20.1769 8.82511 20.3556 9.21806 20.3926 9.63763C20.4295 10.0572 20.3223 10.4768 20.0896 10.8234C19.8569 11.17 19.5135 11.4216 19.1192 11.5343C18.7249 11.6471 18.3047 11.614 17.9317 11.4406L14.9993 14.4593C15.1195 14.7334 15.171 15.0342 15.1492 15.3341C15.1273 15.634 15.0328 15.9236 14.8743 16.1762C14.7158 16.4289 14.4983 16.6366 14.2417 16.7804C13.9851 16.9243 13.6976 16.9996 13.4055 16.9996C13.1133 16.9996 12.8258 16.9243 12.5692 16.7804C12.3126 16.6366 12.0951 16.4289 11.9366 16.1762C11.7781 15.9236 11.6836 15.634 11.6618 15.3341C11.6399 15.0342 11.6915 14.7334 11.8116 14.4593L9.75354 12.3406C9.52751 12.4461 9.28219 12.5007 9.034 12.5007C8.78582 12.5007 8.54049 12.4461 8.31446 12.3406L6.25638 14.4593Z" fill="#00B0FF"/>
</svg>
