<svg width="24" height="24" viewBox="0 0 24 24" fill="none" xmlns="http://www.w3.org/2000/svg">
<rect width="24" height="24" fill="white"/>
<path d="M7.87761 7L9.26361 8.386L10.4246 7.225V10.825H6.82461L7.98561 9.664L6.59961 8.278L7.87761 7ZM17.3996 8.278L16.0136 9.664L17.1746 10.825H13.5746V7.225L14.7356 8.386L16.1216 7L17.3996 8.278ZM16.1216 17.8L14.7356 16.414L13.5746 17.575V13.975H17.1746L16.0136 15.136L17.3996 16.522L16.1216 17.8ZM6.59961 16.522L7.98561 15.136L6.82461 13.975H10.4246V17.575L9.26361 16.414L7.87761 17.8" fill="#FF7167"/>
<path d="M19.2 3H4.8C3.801 3 3 3.801 3 4.8V19.2C3 20.199 3.801 21 4.8 21H19.2C20.199 21 21 20.199 21 19.2V4.8C21 3.801 20.199 3 19.2 3ZM19.2 19.2H4.8V4.8H19.2V19.2Z" fill="#90A1B1"/>
</svg>
