<svg width="24" height="24" viewBox="0 0 24 24" fill="none" xmlns="http://www.w3.org/2000/svg">
<path d="M12 13.5713C13.1046 13.5713 14 12.6759 14 11.5713C14 10.4667 13.1046 9.57129 12 9.57129C10.8954 9.57129 10 10.4667 10 11.5713C10 12.6759 10.8954 13.5713 12 13.5713Z" fill="#90A1B1"/>
<path d="M12 7C13.1046 7 14 6.10457 14 5C14 3.89543 13.1046 3 12 3C10.8954 3 10 3.89543 10 5C10 6.10457 10.8954 7 12 7Z" fill="#90A1B1"/>
<path d="M12 20.1416C13.1046 20.1416 14 19.2462 14 18.1416C14 17.037 13.1046 16.1416 12 16.1416C10.8954 16.1416 10 17.037 10 18.1416C10 19.2462 10.8954 20.1416 12 20.1416Z" fill="#90A1B1"/>
</svg>
