<svg width="24" height="24" viewBox="0 0 24 24" fill="none" xmlns="http://www.w3.org/2000/svg">
<path fill-rule="evenodd" clip-rule="evenodd" d="M17.7273 4.63636H6.27273C5.83874 4.63636 5.42252 4.80877 5.11564 5.11564C4.80877 5.42252 4.63636 5.83874 4.63636 6.27273V17.7273C4.63636 18.1613 4.80877 18.5775 5.11564 18.8844C5.42252 19.1912 5.83874 19.3636 6.27273 19.3636H17.7273C18.1613 19.3636 18.5775 19.1912 18.8844 18.8844C19.1912 18.5775 19.3636 18.1613 19.3636 17.7273V6.27273C19.3636 5.83874 19.1912 5.42252 18.8844 5.11564C18.5775 4.80877 18.1613 4.63636 17.7273 4.63636ZM6.27273 3C5.40475 3 4.57232 3.3448 3.95856 3.95856C3.3448 4.57232 3 5.40475 3 6.27273V17.7273C3 18.5953 3.3448 19.4277 3.95856 20.0414C4.57232 20.6552 5.40475 21 6.27273 21H17.7273C18.5953 21 19.4277 20.6552 20.0414 20.0414C20.6552 19.4277 21 18.5953 21 17.7273V6.27273C21 5.40475 20.6552 4.57232 20.0414 3.95856C19.4277 3.3448 18.5953 3 17.7273 3H6.27273Z" fill="#46627D" fill-opacity="0.6"/>
<path d="M15.2743 11.9998L10.3652 15.5425V8.45703L15.2743 11.9998Z" fill="#01C587"/>
</svg>
