<svg width="24" height="24" viewBox="0 0 24 24" fill="none" xmlns="http://www.w3.org/2000/svg">
<path d="M19.2 3H4.8C3.801 3 3 3.801 3 4.8V19.2C3 20.199 3.801 21 4.8 21H19.2C20.199 21 21 20.199 21 19.2V4.8C21 3.801 20.199 3 19.2 3ZM19.2 19.2H4.8V4.8H19.2V19.2ZM9.147 10.425L7.761 9.039L6.6 10.2V6.6H10.2L9.039 7.761L10.425 9.147L9.147 10.425ZM13.575 9.147L14.961 7.761L13.8 6.6H17.4V10.2L16.239 9.039L14.853 10.425L13.575 9.147ZM14.853 13.575L16.239 14.961L17.4 13.8V17.4H13.8L14.961 16.239L13.575 14.853L14.853 13.575ZM10.425 14.853L9.039 16.239L10.2 17.4H6.6V13.8L7.761 14.961L9.147 13.575" fill="#90A1B1"/>
</svg>
