<svg width="22" height="24" viewBox="0 0 22 24" fill="none" xmlns="http://www.w3.org/2000/svg">
<path fill-rule="evenodd" clip-rule="evenodd" d="M10 7H8.75V8.25H6.875C6.37772 8.25 5.90081 8.44754 5.54917 8.79917C5.19754 9.15081 5 9.62772 5 10.125V13.875C5 14.3723 5.19754 14.8492 5.54917 15.2008C5.90081 15.5525 6.37772 15.75 6.875 15.75H8.75V17H10V7ZM8.75 9.5V14.5H6.875C6.70924 14.5 6.55027 14.4342 6.43306 14.3169C6.31585 14.1997 6.25 14.0408 6.25 13.875V10.125C6.25 9.95924 6.31585 9.80027 6.43306 9.68306C6.55027 9.56585 6.70924 9.5 6.875 9.5H8.75Z" fill="#6C7D8F" fill-opacity="0.5"/>
<path d="M15.625 14.5H11.25V15.75H15.625C16.1223 15.75 16.5992 15.5525 16.9508 15.2008C17.3025 14.8492 17.5 14.3723 17.5 13.875V10.125C17.5 9.62772 17.3025 9.15081 16.9508 8.79917C16.5992 8.44754 16.1223 8.25 15.625 8.25H11.25V9.5H15.625C15.7908 9.5 15.9497 9.56585 16.0669 9.68306C16.1842 9.80027 16.25 9.95924 16.25 10.125V13.875C16.25 14.0408 16.1842 14.1997 16.0669 14.3169C15.9497 14.4342 15.7908 14.5 15.625 14.5Z" fill="#6C7D8F" fill-opacity="0.5"/>
</svg>
